<mxfile host="65bd71144e">
    <diagram id="Cig9LDLKAIhQZaZbznp-" name="Page-1">
        <mxGraphModel dx="653" dy="916" grid="1" gridSize="10" guides="1" tooltips="1" connect="1" arrows="1" fold="1" page="1" pageScale="1" pageWidth="827" pageHeight="1169" math="0" shadow="0">
            <root>
                <mxCell id="0"/>
                <mxCell id="1" parent="0"/>
                <mxCell id="2" value="" style="sketch=0;pointerEvents=1;shadow=0;dashed=0;html=1;strokeColor=none;fillColor=#FFFFFF;labelPosition=center;verticalLabelPosition=bottom;verticalAlign=top;outlineConnect=0;align=center;shape=mxgraph.office.devices.cell_phone_generic;" parent="1" vertex="1">
                    <mxGeometry x="40" y="732.5" width="26" height="47" as="geometry"/>
                </mxCell>
                <mxCell id="3" value="" style="endArrow=none;html=1;" parent="1" edge="1">
                    <mxGeometry width="50" height="50" relative="1" as="geometry">
                        <mxPoint x="120" y="360" as="sourcePoint"/>
                        <mxPoint x="120" y="40" as="targetPoint"/>
                    </mxGeometry>
                </mxCell>
                <mxCell id="4" value="" style="endArrow=none;html=1;" parent="1" edge="1">
                    <mxGeometry width="50" height="50" relative="1" as="geometry">
                        <mxPoint x="400" y="360" as="sourcePoint"/>
                        <mxPoint x="400" y="40" as="targetPoint"/>
                    </mxGeometry>
                </mxCell>
                <mxCell id="5" value="" style="endArrow=block;html=1;endFill=1;" parent="1" edge="1">
                    <mxGeometry width="50" height="50" relative="1" as="geometry">
                        <mxPoint x="120" y="80" as="sourcePoint"/>
                        <mxPoint x="400" y="80" as="targetPoint"/>
                    </mxGeometry>
                </mxCell>
                <mxCell id="6" value="/room/S1234" style="text;html=1;strokeColor=none;fillColor=none;align=center;verticalAlign=middle;whiteSpace=wrap;rounded=0;" parent="1" vertex="1">
                    <mxGeometry x="230" y="50" width="60" height="30" as="geometry"/>
                </mxCell>
                <mxCell id="7" value="" style="sketch=0;pointerEvents=1;shadow=0;dashed=0;html=1;strokeColor=none;fillColor=#505050;labelPosition=center;verticalLabelPosition=bottom;verticalAlign=top;outlineConnect=0;align=center;shape=mxgraph.office.servers.server_generic;" vertex="1" parent="1">
                    <mxGeometry x="318.5" y="730" width="27" height="52" as="geometry"/>
                </mxCell>
                <mxCell id="8" value="ZELIA-API" style="text;html=1;align=center;verticalAlign=middle;resizable=0;points=[];autosize=1;strokeColor=none;fillColor=none;" vertex="1" parent="1">
                    <mxGeometry x="365.5" y="440" width="70" height="20" as="geometry"/>
                </mxCell>
                <mxCell id="9" value="" style="sketch=0;pointerEvents=1;shadow=0;dashed=0;html=1;strokeColor=none;fillColor=#FFFFFF;labelPosition=center;verticalLabelPosition=bottom;verticalAlign=top;outlineConnect=0;align=center;shape=mxgraph.office.devices.cell_phone_generic;" vertex="1" parent="1">
                    <mxGeometry x="108" y="370" width="26" height="47" as="geometry"/>
                </mxCell>
                <mxCell id="10" value="" style="sketch=0;pointerEvents=1;shadow=0;dashed=0;html=1;strokeColor=none;fillColor=#505050;labelPosition=center;verticalLabelPosition=bottom;verticalAlign=top;outlineConnect=0;align=center;shape=mxgraph.office.servers.server_generic;" vertex="1" parent="1">
                    <mxGeometry x="386.5" y="370" width="27" height="52" as="geometry"/>
                </mxCell>
                <mxCell id="11" value="" style="endArrow=classic;startArrow=classic;html=1;" edge="1" parent="1" source="2" target="7">
                    <mxGeometry width="50" height="50" relative="1" as="geometry">
                        <mxPoint x="170" y="779.5" as="sourcePoint"/>
                        <mxPoint x="220" y="729.5" as="targetPoint"/>
                    </mxGeometry>
                </mxCell>
                <mxCell id="12" value="" style="endArrow=classic;startArrow=classic;html=1;" edge="1" parent="1" source="7">
                    <mxGeometry width="50" height="50" relative="1" as="geometry">
                        <mxPoint x="307" y="670" as="sourcePoint"/>
                        <mxPoint x="332" y="560" as="targetPoint"/>
                    </mxGeometry>
                </mxCell>
                <mxCell id="13" value="" style="sketch=0;pointerEvents=1;shadow=0;dashed=0;html=1;strokeColor=none;fillColor=#505050;labelPosition=center;verticalLabelPosition=bottom;verticalAlign=top;outlineConnect=0;align=center;shape=mxgraph.office.servers.server_generic;" vertex="1" parent="1">
                    <mxGeometry x="320" y="510" width="27" height="52" as="geometry"/>
                </mxCell>
                <mxCell id="14" value="" style="endArrow=classic;startArrow=classic;html=1;" edge="1" parent="1" source="7" target="15">
                    <mxGeometry width="50" height="50" relative="1" as="geometry">
                        <mxPoint x="389" y="770" as="sourcePoint"/>
                        <mxPoint x="510" y="756" as="targetPoint"/>
                    </mxGeometry>
                </mxCell>
                <mxCell id="15" value="" style="sketch=0;pointerEvents=1;shadow=0;dashed=0;html=1;strokeColor=none;fillColor=#505050;labelPosition=center;verticalLabelPosition=bottom;verticalAlign=top;outlineConnect=0;align=center;shape=mxgraph.office.servers.server_generic;" vertex="1" parent="1">
                    <mxGeometry x="510" y="723.75" width="27" height="64.5" as="geometry"/>
                </mxCell>
                <mxCell id="16" value="ZELIA" style="text;html=1;strokeColor=none;fillColor=none;align=center;verticalAlign=middle;whiteSpace=wrap;rounded=0;" vertex="1" parent="1">
                    <mxGeometry x="310" y="800" width="60" height="30" as="geometry"/>
                </mxCell>
                <mxCell id="17" value="WebUntis" style="text;html=1;strokeColor=none;fillColor=none;align=center;verticalAlign=middle;whiteSpace=wrap;rounded=0;" vertex="1" parent="1">
                    <mxGeometry x="310" y="470" width="60" height="30" as="geometry"/>
                </mxCell>
                <mxCell id="18" value="DB" style="text;html=1;strokeColor=none;fillColor=none;align=center;verticalAlign=middle;whiteSpace=wrap;rounded=0;" vertex="1" parent="1">
                    <mxGeometry x="550" y="737" width="60" height="30" as="geometry"/>
                </mxCell>
                <mxCell id="19" value="" style="sketch=0;pointerEvents=1;shadow=0;dashed=0;html=1;strokeColor=none;fillColor=#505050;labelPosition=center;verticalLabelPosition=bottom;verticalAlign=top;outlineConnect=0;align=center;shape=mxgraph.office.servers.virtual_database_server;" vertex="1" parent="1">
                    <mxGeometry x="555.5" y="289.5" width="41" height="56" as="geometry"/>
                </mxCell>
                <mxCell id="20" value="" style="sketch=0;pointerEvents=1;shadow=0;dashed=0;html=1;strokeColor=none;fillColor=#505050;labelPosition=center;verticalLabelPosition=bottom;verticalAlign=top;outlineConnect=0;align=center;shape=mxgraph.office.servers.virtual_web_server;" vertex="1" parent="1">
                    <mxGeometry x="641.5" y="260" width="44" height="55" as="geometry"/>
                </mxCell>
                <mxCell id="21" value="" style="sketch=0;pointerEvents=1;shadow=0;dashed=0;html=1;strokeColor=none;fillColor=#505050;labelPosition=center;verticalLabelPosition=bottom;verticalAlign=top;outlineConnect=0;align=center;shape=mxgraph.office.servers.virtual_application_server;" vertex="1" parent="1">
                    <mxGeometry x="685.5" y="179.5" width="48" height="55" as="geometry"/>
                </mxCell>
                <mxCell id="22" value="" style="sketch=0;pointerEvents=1;shadow=0;dashed=0;html=1;strokeColor=none;fillColor=#505050;labelPosition=center;verticalLabelPosition=bottom;verticalAlign=top;outlineConnect=0;align=center;shape=mxgraph.office.servers.server_generic;" vertex="1" parent="1">
                    <mxGeometry x="562.5" y="181" width="27" height="52" as="geometry"/>
                </mxCell>
                <mxCell id="23" value="" style="sketch=0;pointerEvents=1;shadow=0;dashed=0;html=1;strokeColor=none;fillColor=#505050;labelPosition=center;verticalLabelPosition=bottom;outlineConnect=0;verticalAlign=top;align=center;shape=mxgraph.office.clouds.cloud;" vertex="1" parent="1">
                    <mxGeometry x="435.5" y="90" width="94" height="55" as="geometry"/>
                </mxCell>
                <mxCell id="24" value="" style="endArrow=none;html=1;" edge="1" parent="1" source="23" target="22">
                    <mxGeometry width="50" height="50" relative="1" as="geometry">
                        <mxPoint x="515.5" y="-128" as="sourcePoint"/>
                        <mxPoint x="565.5" y="-178" as="targetPoint"/>
                    </mxGeometry>
                </mxCell>
                <mxCell id="25" value="" style="sketch=0;pointerEvents=1;shadow=0;dashed=0;html=1;labelPosition=center;verticalLabelPosition=bottom;verticalAlign=top;outlineConnect=0;align=center;shape=mxgraph.office.servers.server_generic;fillColor=#FF9904;strokeColor=none;" vertex="1" parent="1">
                    <mxGeometry x="696" y="40" width="27" height="52" as="geometry"/>
                </mxCell>
                <mxCell id="26" value="WebUntis" style="text;html=1;align=center;verticalAlign=middle;resizable=0;points=[];autosize=1;strokeColor=none;fillColor=none;" vertex="1" parent="1">
                    <mxGeometry x="725.5" y="56" width="70" height="20" as="geometry"/>
                </mxCell>
                <mxCell id="27" value="" style="endArrow=none;html=1;" edge="1" parent="1" source="25" target="21">
                    <mxGeometry width="50" height="50" relative="1" as="geometry">
                        <mxPoint x="665.5" y="260" as="sourcePoint"/>
                        <mxPoint x="715.5" y="210" as="targetPoint"/>
                    </mxGeometry>
                </mxCell>
                <mxCell id="28" value="" style="endArrow=none;html=1;" edge="1" parent="1" source="22" target="21">
                    <mxGeometry width="50" height="50" relative="1" as="geometry">
                        <mxPoint x="665.5" y="230" as="sourcePoint"/>
                        <mxPoint x="715.5" y="180" as="targetPoint"/>
                    </mxGeometry>
                </mxCell>
                <mxCell id="29" value="" style="endArrow=none;html=1;" edge="1" parent="1" source="22" target="20">
                    <mxGeometry width="50" height="50" relative="1" as="geometry">
                        <mxPoint x="665.5" y="230" as="sourcePoint"/>
                        <mxPoint x="715.5" y="180" as="targetPoint"/>
                    </mxGeometry>
                </mxCell>
                <mxCell id="30" value="" style="endArrow=none;html=1;" edge="1" parent="1" source="19" target="22">
                    <mxGeometry width="50" height="50" relative="1" as="geometry">
                        <mxPoint x="665.5" y="230" as="sourcePoint"/>
                        <mxPoint x="715.5" y="180" as="targetPoint"/>
                    </mxGeometry>
                </mxCell>
                <mxCell id="31" value="Datenbank" style="text;html=1;align=center;verticalAlign=middle;resizable=0;points=[];autosize=1;strokeColor=none;fillColor=none;" vertex="1" parent="1">
                    <mxGeometry x="555.5" y="360" width="70" height="20" as="geometry"/>
                </mxCell>
                <mxCell id="32" value="ZELIA Webseite" style="text;html=1;align=center;verticalAlign=middle;resizable=0;points=[];autosize=1;strokeColor=none;fillColor=none;" vertex="1" parent="1">
                    <mxGeometry x="695.5" y="295" width="100" height="20" as="geometry"/>
                </mxCell>
                <mxCell id="33" value="ZELIA-API" style="text;html=1;align=center;verticalAlign=middle;resizable=0;points=[];autosize=1;strokeColor=none;fillColor=none;" vertex="1" parent="1">
                    <mxGeometry x="745.5" y="214.5" width="70" height="20" as="geometry"/>
                </mxCell>
            </root>
        </mxGraphModel>
    </diagram>
</mxfile>